<svg width="256" height="257" viewBox="0 0 256 257" fill="none" xmlns="http://www.w3.org/2000/svg">
<rect width="256" height="256" rx="24" fill="#DBEAFE"/>
<path d="M135.618 256.48C139.138 250.4 141.858 244.72 143.778 239.44C145.698 234.16 146.658 229.76 146.658 226.24C146.658 222.88 146.098 220.24 144.978 218.32C143.858 216.56 141.698 214.96 138.498 213.52C135.298 212.24 130.578 210.88 124.338 209.44C113.618 206.72 104.738 203.28 97.6978 199.12C90.8178 194.8 85.6178 189.44 82.0978 183.04C78.7378 176.64 77.0578 168.96 77.0578 160C77.0578 149.12 79.3778 138.8 84.0178 129.04C88.6578 119.28 94.7378 109.6 102.258 100C109.938 90.4 118.018 80.48 126.498 70.24L142.818 50.56C140.738 51.04 138.018 51.44 134.658 51.76C131.298 52.08 127.938 52.32 124.578 52.48C121.218 52.48 118.498 52.48 116.418 52.48H82.3378V25.6H182.418V48.16L151.218 87.04C143.058 97.28 136.178 106.32 130.578 114.16C124.978 121.84 120.738 128.88 117.858 135.28C114.978 141.68 113.538 147.92 113.538 154C113.538 158.48 114.418 162.4 116.178 165.76C118.098 169.12 121.218 172 125.538 174.4C129.858 176.8 135.858 178.96 143.538 180.88C153.298 183.12 160.898 185.76 166.338 188.8C171.938 191.68 175.858 195.36 178.098 199.84C180.338 204.16 181.458 209.68 181.458 216.4C181.458 221.04 180.978 225.52 180.018 229.84C179.058 234.16 177.698 238.48 175.938 242.8C174.178 247.28 172.018 251.84 169.458 256.48H135.618Z" fill="black"/>
</svg>
